<svg width="28" height="28" viewBox="0 0 28 28" fill="none" xmlns="http://www.w3.org/2000/svg">
<path d="M23.333 14.3199C23.333 14.7629 23.0038 15.129 22.5767 15.187L22.458 15.1949L4.95801 15.1949C4.47476 15.1949 4.08301 14.8032 4.08301 14.3199C4.08301 13.877 4.41219 13.5109 4.83928 13.4529L4.95801 13.4449L22.458 13.4449C22.9413 13.4449 23.333 13.8367 23.333 14.3199Z" fill="white"/>
<path d="M12.633 20.7284C12.9755 21.0694 12.9766 21.6234 12.6357 21.9658C12.3257 22.2771 11.8397 22.3064 11.4966 22.053L11.3982 21.9685L4.33991 14.9405C4.02766 14.6296 3.99926 14.1418 4.25471 13.7987L4.33986 13.7004L11.3982 6.67126C11.7406 6.33026 12.2946 6.33141 12.6356 6.67382C12.9456 6.98511 12.9729 7.47128 12.718 7.8133L12.6331 7.91126L6.19769 14.3208L12.633 20.7284Z" fill="white"/>
</svg>
